<?xml version="1.0" encoding="UTF-8"?>
<svg xmlns="http://www.w3.org/2000/svg"
     viewBox="0 0 200 200"
     width="200" height="200"
     fill="none"
     stroke="black"
     stroke-width="2"
     stroke-linecap="round"
     stroke-linejoin="round">

  <!-- Thân & đầu -->
  <path d="
    M60 140
    C60 110, 80 80, 100 80
    C120 80, 140 110, 140 140
    C140 160, 120 170, 100 170
    C80 170, 60 160, 60 140Z" />

  <!-- Tai trái -->
  <path d="M80 80 C75 60, 70 55, 68 60 C66 65, 70 75, 80 80Z" />

  <!-- Tai phải -->
  <path d="M120 80 C125 60, 130 55, 132 60 C134 65, 130 75, 120 80Z" />

  <!-- Mắt trái -->
  <path d="M88 100 C88 98, 90 98, 90 100" />

  <!-- Mắt phải -->
  <path d="M110 100 C110 98, 112 98, 112 100" />

  <!-- Miệng cong -->
  <path d="
    M85 105
    C87 108, 90 110, 100 110
    C110 110, 113 108, 115 105" />

  <!-- Đuôi -->
  <path d="
    M140 150
    C160 145, 175 130, 165 115
    C155 100, 140 110, 145 130
    C150 145, 140 150, 140 150Z" />
</svg>
